<?xml version="1.0" encoding="UTF-8"?>
<svg id="Layer_1" xmlns="http://www.w3.org/2000/svg" viewBox="0 0 640 640">
  <defs>
    <style>
      .cls-1 {
        fill: #fcab36;
      }

      .cls-2 {
        fill: #fff;
      }

      .cls-3 {
        fill: #d97823;
      }
    </style>
  </defs>
  <path class="cls-2" d="M274.02,284.89l29.71,35.27H40v-84.65c0-7.04.79-13.89,2.31-20.46,9.27-40.12,45.21-70.04,88.11-70.04h174.38l.23.29-20.39,37.88-17.16,31.91-.02-.04-1.21-1.43h-100c-4.17,0-8.24.49-12.12,1.43-23.04,5.45-40.18,26.18-40.18,50.92v18.92h160.05Z"/>
  <path class="cls-2" d="M305.01,495H123.04c-39.71-3.2-72.16-32.09-80.78-70.04-1.48-6.48-2.26-13.22-2.26-20.15v-84.65h263.73l-29.32,34.78H113.96v19.41c0,24.27,16.51,44.69,38.89,50.61,4.28,1.14,8.77,1.73,13.4,1.73h99.24l18.24,31.53,21.27,36.78Z"/>
  <polygon class="cls-3" points="404.41 254.64 404.41 385.66 371.29 424.96 369.83 426.69 312.42 494.82 312.26 495 312.22 495 272.72 426.69 273.47 426.69 274.94 424.96 280.76 418.04 312.42 380.48 363.26 320.15 312.42 259.82 280.76 222.27 274.7 215.08 312.24 145.29 312.42 145.49 369.83 213.62 371.04 215.04 404.41 254.64"/>
  <polygon class="cls-1" points="542.18 426.69 599.73 495 503.4 495 445.83 426.69 444.37 424.96 409.82 383.97 409.82 256.34 444.62 215.04 445.83 213.62 503.65 145 600 145 542.18 213.62 540.97 215.04 452.4 320.15 540.72 424.96 542.18 426.69"/>
  <line class="cls-2" x1="267.49" y1="215.08" x2="267.3" y2="215.42"/>
</svg>